<svg version="1.1" id="Layer_1" xmlns="http://www.w3.org/2000/svg" xmlns:xlink="http://www.w3.org/1999/xlink" x="0px" y="0px"
	 width="100%" viewBox="0 0 370 316" enable-background="new 0 0 370 316" xml:space="preserve">
<path fill="#010101" opacity="1.000000" stroke="none" 
	d="
M252.000000,317.000000 
	C168.000015,317.000000 84.500031,317.000000 1.000034,317.000000 
	C1.000022,211.666702 1.000022,106.333405 1.000011,1.000076 
	C124.333282,1.000051 247.666565,1.000051 370.999878,1.000025 
	C370.999939,106.333260 370.999939,211.666519 370.999969,316.999878 
	C331.500000,317.000000 292.000000,317.000000 252.000000,317.000000 
M195.284500,55.086075 
	C194.929291,55.861607 194.574097,56.637142 193.982132,58.033791 
	C188.834518,64.852272 183.759720,71.727219 178.525101,78.478249 
	C164.794403,96.186577 150.892288,113.762932 137.268539,131.552765 
	C131.312439,139.330246 125.983505,147.584808 120.165451,155.472000 
	C111.941994,166.620026 103.543625,177.639282 95.194580,188.694382 
	C70.708496,221.116791 46.209827,253.529724 21.062008,286.059357 
	C20.246792,290.652985 23.902103,288.908386 25.620094,288.917389 
	C49.820168,289.044403 74.021233,289.027679 98.221657,288.938721 
	C99.849380,288.932739 101.473953,288.068878 103.771568,287.266144 
	C104.516190,287.185425 105.260818,287.104706 106.294342,287.476715 
	C106.882156,287.079437 107.469963,286.682129 108.665337,285.910065 
	C112.962440,282.889252 117.724464,280.342224 121.423523,276.712036 
	C124.992287,273.209717 127.381187,268.527252 130.432480,264.471619 
	C142.326645,248.662323 154.238174,232.865753 166.218933,217.122025 
	C178.995377,200.332657 191.857376,183.608398 205.434448,166.852768 
	C205.936050,165.857529 206.437637,164.862289 207.144043,163.191574 
	C210.282959,159.042969 213.384567,154.865509 216.566803,150.750412 
	C239.603027,120.961052 262.717438,91.231850 285.665680,61.374935 
	C292.673553,52.257351 299.244904,42.803993 305.997803,33.491119 
	C306.717926,32.498032 307.314484,31.415384 308.339722,29.783060 
	C304.781250,29.783060 301.978088,29.780914 299.174957,29.783400 
	C277.374847,29.802727 255.572632,30.010292 233.775497,29.765764 
	C222.466599,29.638893 213.061905,33.091816 205.096649,41.961380 
	C204.390030,43.289803 203.683395,44.618221 202.770203,46.588829 
	C201.236908,48.421318 199.703629,50.253807 197.461929,52.123009 
	C196.971207,53.076962 196.480484,54.030914 196.000610,54.999756 
	C196.000610,54.999756 195.985306,54.991142 195.284500,55.086075 
M214.973602,231.681778 
	C215.968750,232.789551 216.963898,233.897324 218.334503,235.578842 
	C220.374725,238.010834 222.414963,240.442825 224.224884,243.532761 
	C225.498825,244.979919 226.772766,246.427078 228.168869,248.529709 
	C229.134766,249.678467 230.100677,250.827240 231.081635,252.619965 
	C231.731293,253.052185 232.380936,253.484406 233.228134,254.567719 
	C240.560272,264.464630 247.972061,274.304169 255.169586,284.298035 
	C257.011261,286.855225 258.967102,287.943176 262.170349,287.917877 
	C282.482666,287.757416 302.796570,287.794403 323.109955,287.773254 
	C331.892670,287.764099 340.675385,287.771698 351.220276,287.771698 
	C346.198822,281.262146 342.001556,275.975067 337.970276,270.564331 
	C328.227417,257.487549 318.558746,244.355484 308.866241,231.241211 
	C298.039246,216.591965 287.276978,201.894318 276.369507,187.305237 
	C271.402832,180.662094 266.154877,174.229233 260.981812,167.147751 
	C260.290924,167.337097 259.600037,167.526459 258.714783,168.295822 
	C258.158600,168.870285 257.602417,169.444763 256.332367,170.055328 
	C255.545807,171.347778 254.759262,172.640244 253.890503,174.439972 
	C253.630753,174.642578 253.370987,174.845184 252.355362,175.008865 
	C249.622711,176.161270 245.530579,176.455978 248.277679,181.754013 
	C247.862946,182.173889 247.448196,182.593781 246.317978,183.111130 
	C245.943893,183.892136 245.569809,184.673141 245.083725,185.960907 
	C244.723862,186.307831 244.363983,186.654739 243.259857,187.052185 
	C239.590652,188.146057 236.976303,189.967072 238.082397,194.933426 
	C237.729050,195.291977 237.375717,195.650528 236.304626,196.059830 
	C235.538498,197.378036 234.772354,198.696243 233.834335,200.669937 
	C229.795990,205.750198 225.757629,210.830444 220.986511,215.939301 
	C219.985992,217.617798 218.985458,219.296280 218.001678,220.999222 
	C218.001678,220.999222 217.975739,220.986176 217.219116,220.967041 
	C213.113586,220.749695 212.876740,222.965408 213.894867,226.582336 
	C213.760422,226.705444 213.625961,226.828568 212.850174,227.157242 
	C211.144821,229.828857 212.097229,230.973694 214.995636,230.993515 
	C214.995636,230.993515 215.030243,230.955399 214.973602,231.681778 
z"/>
<path fill="#F8F4F2" opacity="1.000000" stroke="none" 
	d="
M106.005447,287.023956 
	C105.260818,287.104706 104.516190,287.185425 102.966026,287.363037 
	C76.551331,287.500183 50.942131,287.562744 25.333162,287.511139 
	C24.126419,287.508698 22.921721,286.491150 21.716078,285.946350 
	C46.209827,253.529724 70.708496,221.116791 95.194580,188.694382 
	C103.543625,177.639282 111.941994,166.620026 120.165451,155.472000 
	C125.983505,147.584808 131.312439,139.330246 137.268539,131.552765 
	C150.892288,113.762932 164.794403,96.186577 178.525101,78.478249 
	C183.759720,71.727219 188.834518,64.852272 194.388046,57.591537 
	C195.191071,56.429909 195.588196,55.710526 195.985306,54.991142 
	C195.985306,54.991142 196.000610,54.999756 196.291580,54.880203 
	C197.111816,53.869202 197.641083,52.977753 198.170349,52.086304 
	C199.703629,50.253807 201.236908,48.421318 203.172424,46.153572 
	C204.326599,44.457813 205.078552,43.197311 205.830505,41.936813 
	C213.061905,33.091816 222.466599,29.638893 233.775497,29.765764 
	C255.572632,30.010292 277.374847,29.802727 299.174957,29.783400 
	C301.978088,29.780914 304.781250,29.783060 308.339722,29.783060 
	C307.314484,31.415384 306.717926,32.498032 305.997803,33.491119 
	C299.244904,42.803993 292.673553,52.257351 285.665680,61.374935 
	C262.717438,91.231850 239.603027,120.961052 216.566803,150.750412 
	C213.384567,154.865509 210.282959,159.042969 206.747070,163.663971 
	C205.794052,165.042801 205.238037,165.949249 204.682007,166.855713 
	C191.857376,183.608398 178.995377,200.332657 166.218933,217.122025 
	C154.238174,232.865753 142.326645,248.662323 130.432480,264.471619 
	C127.381187,268.527252 124.992287,273.209717 121.423523,276.712036 
	C117.724464,280.342224 112.962440,282.889252 108.070885,286.031860 
	C106.986099,286.443787 106.495773,286.733887 106.005447,287.023956 
z"/>
<path fill="#F7F3F1" opacity="1.000000" stroke="none" 
	d="
M221.719299,215.910706 
	C225.757629,210.830444 229.795990,205.750198 234.222519,200.222656 
	C235.414581,198.519928 236.218475,197.264511 237.022369,196.009079 
	C237.375717,195.650528 237.729050,195.291977 238.445312,194.532257 
	C240.540192,191.754623 242.272156,189.378143 244.004120,187.001663 
	C244.363983,186.654739 244.723862,186.307831 245.427856,185.567017 
	C246.192474,184.453308 246.612976,183.733490 247.033478,183.013657 
	C247.448196,182.593781 247.862946,182.173889 248.643585,181.313293 
	C250.376740,178.930984 251.743988,176.989395 253.111221,175.047791 
	C253.370987,174.845184 253.630753,174.642578 254.232056,174.073212 
	C255.397812,172.477371 256.222015,171.248291 257.046234,170.019226 
	C257.602417,169.444763 258.158600,168.870285 259.161682,167.903915 
	C260.083893,167.574997 260.559204,167.638000 261.034515,167.700989 
	C266.154877,174.229233 271.402832,180.662094 276.369507,187.305237 
	C287.276978,201.894318 298.039246,216.591965 308.866241,231.241211 
	C318.558746,244.355484 328.227417,257.487549 337.970276,270.564331 
	C342.001556,275.975067 346.198822,281.262146 351.220276,287.771698 
	C340.675385,287.771698 331.892670,287.764099 323.109955,287.773254 
	C302.796570,287.794403 282.482666,287.757416 262.170349,287.917877 
	C258.967102,287.943176 257.011261,286.855225 255.169586,284.298035 
	C247.972061,274.304169 240.560272,264.464630 233.101501,253.928680 
	C232.338760,252.851761 231.702667,252.413879 231.066574,251.975998 
	C230.100677,250.827240 229.134766,249.678467 228.123535,247.856873 
	C226.870544,245.747635 225.662857,244.311234 224.455200,242.874817 
	C222.414963,240.442825 220.374725,238.010834 218.186646,234.963531 
	C217.035950,233.217270 216.033096,232.086334 215.030243,230.955399 
	C215.030243,230.955399 214.995636,230.993515 214.958374,230.623810 
	C214.444565,229.153290 213.968033,228.052505 213.491501,226.951706 
	C213.625961,226.828568 213.760422,226.705444 214.261536,226.189697 
	C215.744049,224.193436 216.859894,222.589798 217.975739,220.986176 
	C217.975739,220.986176 218.001678,220.999222 218.296234,220.870392 
	C219.633621,219.131287 220.676453,217.520996 221.719299,215.910706 
z"/>
<path fill="#292929" opacity="1.000000" stroke="none" 
	d="
M21.389040,286.002869 
	C22.921721,286.491150 24.126419,287.508698 25.333162,287.511139 
	C50.942131,287.562744 76.551331,287.500183 102.630234,287.531982 
	C101.473953,288.068878 99.849380,288.932739 98.221657,288.938721 
	C74.021233,289.027679 49.820168,289.044403 25.620094,288.917389 
	C23.902103,288.908386 20.246792,290.652985 21.389040,286.002869 
z"/>
<path fill="#171616" opacity="1.000000" stroke="none" 
	d="
M252.733292,175.028336 
	C251.743988,176.989395 250.376740,178.930984 248.735352,181.026947 
	C245.530579,176.455978 249.622711,176.161270 252.733292,175.028336 
z"/>
<path fill="#171616" opacity="1.000000" stroke="none" 
	d="
M243.631989,187.026917 
	C242.272156,189.378143 240.540192,191.754623 238.494476,194.275787 
	C236.976303,189.967072 239.590652,188.146057 243.631989,187.026917 
z"/>
<path fill="#171616" opacity="1.000000" stroke="none" 
	d="
M217.597427,220.976608 
	C216.859894,222.589798 215.744049,224.193436 214.325165,225.923737 
	C212.876740,222.965408 213.113586,220.749695 217.597427,220.976608 
z"/>
<path fill="#E6E3E2" opacity="1.000000" stroke="none" 
	d="
M224.340027,243.203796 
	C225.662857,244.311234 226.870544,245.747635 228.062454,247.529129 
	C226.772766,246.427078 225.498825,244.979919 224.340027,243.203796 
z"/>
<path fill="#171616" opacity="1.000000" stroke="none" 
	d="
M221.352905,215.925003 
	C220.676453,217.520996 219.633621,219.131287 218.287872,220.858170 
	C218.985458,219.296280 219.985992,217.617798 221.352905,215.925003 
z"/>
<path fill="#171616" opacity="1.000000" stroke="none" 
	d="
M213.170837,227.054474 
	C213.968033,228.052505 214.444565,229.153290 214.981842,230.613892 
	C212.097229,230.973694 211.144821,229.828857 213.170837,227.054474 
z"/>
<path fill="#171616" opacity="1.000000" stroke="none" 
	d="
M256.689301,170.037277 
	C256.222015,171.248291 255.397812,172.477371 254.273163,173.819580 
	C254.759262,172.640244 255.545807,171.347778 256.689301,170.037277 
z"/>
<path fill="#171616" opacity="1.000000" stroke="none" 
	d="
M236.663498,196.034454 
	C236.218475,197.264511 235.414581,198.519928 234.308456,199.894897 
	C234.772354,198.696243 235.538498,197.378036 236.663498,196.034454 
z"/>
<path fill="#1E1C1D" opacity="1.000000" stroke="none" 
	d="
M205.463577,41.949097 
	C205.078552,43.197311 204.326599,44.457813 203.275711,45.832478 
	C203.683395,44.618221 204.390030,43.289803 205.463577,41.949097 
z"/>
<path fill="#171616" opacity="1.000000" stroke="none" 
	d="
M215.001923,231.318588 
	C216.033096,232.086334 217.035950,233.217270 217.998917,234.676666 
	C216.963898,233.897324 215.968750,232.789551 215.001923,231.318588 
z"/>
<path fill="#181718" opacity="1.000000" stroke="none" 
	d="
M205.058228,166.854233 
	C205.238037,165.949249 205.794052,165.042801 206.644653,164.001709 
	C206.437637,164.862289 205.936050,165.857529 205.058228,166.854233 
z"/>
<path fill="#272625" opacity="1.000000" stroke="none" 
	d="
M197.816132,52.104656 
	C197.641083,52.977753 197.111816,53.869202 196.286148,54.872757 
	C196.480484,54.030914 196.971207,53.076962 197.816132,52.104656 
z"/>
<path fill="#E6E3E2" opacity="1.000000" stroke="none" 
	d="
M231.074097,252.297974 
	C231.702667,252.413879 232.338760,252.851761 233.002716,253.603134 
	C232.380936,253.484406 231.731293,253.052185 231.074097,252.297974 
z"/>
<path fill="#292929" opacity="1.000000" stroke="none" 
	d="
M106.149895,287.250336 
	C106.495773,286.733887 106.986099,286.443787 107.767105,286.219269 
	C107.469963,286.682129 106.882156,287.079437 106.149895,287.250336 
z"/>
<path fill="#171616" opacity="1.000000" stroke="none" 
	d="
M246.675720,183.062393 
	C246.612976,183.733490 246.192474,184.453308 245.483856,185.313629 
	C245.569809,184.673141 245.943893,183.892136 246.675720,183.062393 
z"/>
<path fill="#171616" opacity="1.000000" stroke="none" 
	d="
M261.008179,167.424377 
	C260.559204,167.638000 260.083893,167.574997 259.258850,167.613907 
	C259.600037,167.526459 260.290924,167.337097 261.008179,167.424377 
z"/>
<path fill="#272625" opacity="1.000000" stroke="none" 
	d="
M195.634903,55.038609 
	C195.588196,55.710526 195.191071,56.429909 194.506424,57.280983 
	C194.574097,56.637142 194.929291,55.861607 195.634903,55.038609 
z"/>
</svg>